<mxfile host="65bd71144e">
    <diagram id="1vv_f-jinX2XEglZCbWs" name="Page-1">
        <mxGraphModel dx="797" dy="831" grid="1" gridSize="10" guides="1" tooltips="1" connect="1" arrows="1" fold="1" page="1" pageScale="1" pageWidth="850" pageHeight="1100" math="0" shadow="0">
            <root>
                <mxCell id="0"/>
                <mxCell id="1" parent="0"/>
                <mxCell id="2" value="" style="group" vertex="1" connectable="0" parent="1">
                    <mxGeometry x="1130" y="475" width="290" height="150" as="geometry"/>
                </mxCell>
                <mxCell id="3" value="REGISTER FILE" style="rounded=1;whiteSpace=wrap;html=1;movable=1;resizable=1;rotatable=1;deletable=1;editable=1;locked=0;connectable=1;" vertex="1" parent="2">
                    <mxGeometry x="10" width="270" height="140" as="geometry"/>
                </mxCell>
                <mxCell id="4" value="&lt;div&gt;rs1_addr&lt;/div&gt;" style="html=1;shadow=0;dashed=0;align=left;verticalAlign=middle;shape=mxgraph.arrows2.arrow;dy=0;dx=10;notch=0;labelPosition=right;verticalLabelPosition=middle;spacing=5;movable=1;resizable=1;rotatable=1;deletable=1;editable=1;locked=0;connectable=1;" vertex="1" parent="2">
                    <mxGeometry y="20" width="20" height="10" as="geometry"/>
                </mxCell>
                <mxCell id="5" value="rs2_addr" style="html=1;shadow=0;dashed=0;align=left;verticalAlign=middle;shape=mxgraph.arrows2.arrow;dy=0;dx=10;notch=0;labelPosition=right;verticalLabelPosition=middle;spacing=5;movable=1;resizable=1;rotatable=1;deletable=1;editable=1;locked=0;connectable=1;" vertex="1" parent="2">
                    <mxGeometry y="40" width="20" height="10" as="geometry"/>
                </mxCell>
                <mxCell id="6" value="wr_addr" style="html=1;shadow=0;dashed=0;align=center;verticalAlign=bottom;shape=mxgraph.arrows2.arrow;dy=0;dx=10;notch=0;labelPosition=center;verticalLabelPosition=top;spacing=5;direction=north;movable=1;resizable=1;rotatable=1;deletable=1;editable=1;locked=0;connectable=1;" vertex="1" parent="2">
                    <mxGeometry x="240" y="130" width="10" height="20" as="geometry"/>
                </mxCell>
                <mxCell id="7" value="wr_enable" style="html=1;shadow=0;dashed=0;align=center;verticalAlign=bottom;shape=mxgraph.arrows2.arrow;dy=0;dx=10;notch=0;labelPosition=center;verticalLabelPosition=top;spacing=5;direction=north;movable=1;resizable=1;rotatable=1;deletable=1;editable=1;locked=0;connectable=1;" vertex="1" parent="2">
                    <mxGeometry x="180" y="130" width="10" height="20" as="geometry"/>
                </mxCell>
                <mxCell id="8" value="&lt;div&gt;wr_data&lt;/div&gt;" style="html=1;shadow=0;dashed=0;align=center;verticalAlign=bottom;shape=mxgraph.arrows2.arrow;dy=0;dx=10;notch=0;labelPosition=center;verticalLabelPosition=top;spacing=5;direction=north;movable=1;resizable=1;rotatable=1;deletable=1;editable=1;locked=0;connectable=1;" vertex="1" parent="2">
                    <mxGeometry x="120" y="130" width="10" height="20" as="geometry"/>
                </mxCell>
                <mxCell id="9" value="&lt;div&gt;rs1&lt;/div&gt;" style="html=1;shadow=0;dashed=0;align=right;verticalAlign=middle;shape=mxgraph.arrows2.arrow;dy=0;dx=10;notch=0;labelPosition=left;verticalLabelPosition=middle;spacing=5;movable=1;resizable=1;rotatable=1;deletable=1;editable=1;locked=0;connectable=1;" vertex="1" parent="2">
                    <mxGeometry x="270" y="20" width="20" height="10" as="geometry"/>
                </mxCell>
                <mxCell id="10" value="&lt;div&gt;rs2&lt;/div&gt;" style="html=1;shadow=0;dashed=0;align=right;verticalAlign=middle;shape=mxgraph.arrows2.arrow;dy=0;dx=10;notch=0;labelPosition=left;verticalLabelPosition=middle;spacing=5;movable=1;resizable=1;rotatable=1;deletable=1;editable=1;locked=0;connectable=1;" vertex="1" parent="2">
                    <mxGeometry x="270" y="40" width="20" height="10" as="geometry"/>
                </mxCell>
            </root>
        </mxGraphModel>
    </diagram>
</mxfile>